{
	"asset":{
		"generator":"Khronos glTF Blender I/O v4.3.47",
		"version":"2.0"
	},
	"extensionsUsed":[
		"KHR_materials_emissive_strength"
	],
	"scene":0,
	"scenes":[
		{
			"name":"Scene",
			"nodes":[
				2
			]
		}
	],
	"nodes":[
		{
			"mesh":0,
			"name":"Thread.002",
			"scale":[
				0.7541950345039368,
				0.7541950941085815,
				0.7541950345039368
			],
			"translation":[
				0,
				-1.455074429512024,
				0
			]
		},
		{
			"children":[
				0
			],
			"mesh":1,
			"name":"Thread.001",
			"translation":[
				0,
				1.4469375610351562,
				0
			]
		},
		{
			"children":[
				1
			],
			"mesh":2,
			"name":"Jar",
			"scale":[
				0.151653453707695,
				0.151653453707695,
				0.151653453707695
			]
		}
	],
	"materials":[
		{
			"doubleSided":true,
			"emissiveFactor":[
				1,
				0.5378710627555847,
				0.02580803632736206
			],
			"extensions":{
				"KHR_materials_emissive_strength":{
					"emissiveStrength":35.89999771118164
				}
			},
			"name":"Material.002",
			"pbrMetallicRoughness":{
				"baseColorFactor":[
					0,
					0,
					0,
					1
				]
			}
		},
		{
			"doubleSided":true,
			"name":"Metalic Paint.001"
		},
		{
			"doubleSided":true,
			"name":"Metalic Paint.003"
		},
		{
			"doubleSided":true,
			"name":"Basic Glass"
		}
	],
	"meshes":[
		{
			"name":"ThreadMesh.004",
			"primitives":[
				{
					"attributes":{
						"POSITION":0,
						"NORMAL":1,
						"TEXCOORD_0":2
					},
					"indices":3,
					"material":0
				}
			]
		},
		{
			"name":"ThreadMesh.002",
			"primitives":[
				{
					"attributes":{
						"POSITION":4,
						"NORMAL":5,
						"TEXCOORD_0":6
					},
					"indices":7,
					"material":1
				},
				{
					"attributes":{
						"POSITION":8,
						"NORMAL":9,
						"TEXCOORD_0":10
					},
					"indices":11,
					"material":2
				}
			]
		},
		{
			"name":"ThreadMesh.005",
			"primitives":[
				{
					"attributes":{
						"POSITION":12,
						"NORMAL":13,
						"TEXCOORD_0":14
					},
					"indices":15,
					"material":3
				}
			]
		}
	],
	"accessors":[
		{
			"bufferView":0,
			"componentType":5126,
			"count":4096,
			"max":[
				0.5012614130973816,
				1.9423226118087769,
				0.5018037557601929
			],
			"min":[
				-0.4986836314201355,
				1.903771996498108,
				-0.4981409013271332
			],
			"type":"VEC3"
		},
		{
			"bufferView":1,
			"componentType":5126,
			"count":4096,
			"type":"VEC3"
		},
		{
			"bufferView":2,
			"componentType":5126,
			"count":4096,
			"type":"VEC2"
		},
		{
			"bufferView":3,
			"componentType":5123,
			"count":24576,
			"type":"SCALAR"
		},
		{
			"bufferView":4,
			"componentType":5126,
			"count":17870,
			"max":[
				0.37806951999664307,
				0.13939011096954346,
				0.3784787952899933
			],
			"min":[
				-0.3761255741119385,
				-0.13190603256225586,
				-0.37571629881858826
			],
			"type":"VEC3"
		},
		{
			"bufferView":5,
			"componentType":5126,
			"count":17870,
			"type":"VEC3"
		},
		{
			"bufferView":6,
			"componentType":5126,
			"count":17870,
			"type":"VEC2"
		},
		{
			"bufferView":7,
			"componentType":5123,
			"count":107154,
			"type":"SCALAR"
		},
		{
			"bufferView":8,
			"componentType":5126,
			"count":1243,
			"max":[
				0.06523613631725311,
				0.13651339709758759,
				0.27814996242523193
			],
			"min":[
				-0.06310203671455383,
				0.13523322343826294,
				-0.1325296014547348
			],
			"type":"VEC3"
		},
		{
			"bufferView":9,
			"componentType":5126,
			"count":1243,
			"type":"VEC3"
		},
		{
			"bufferView":10,
			"componentType":5126,
			"count":1243,
			"type":"VEC2"
		},
		{
			"bufferView":11,
			"componentType":5123,
			"count":6600,
			"type":"SCALAR"
		},
		{
			"bufferView":12,
			"componentType":5126,
			"count":41339,
			"max":[
				0.37709692120552063,
				1.5244123935699463,
				0.377096951007843
			],
			"min":[
				-0.37709692120552063,
				0.0021009708289057016,
				-0.377096951007843
			],
			"type":"VEC3"
		},
		{
			"bufferView":13,
			"componentType":5126,
			"count":41339,
			"type":"VEC3"
		},
		{
			"bufferView":14,
			"componentType":5126,
			"count":41339,
			"type":"VEC2"
		},
		{
			"bufferView":15,
			"componentType":5123,
			"count":247260,
			"type":"SCALAR"
		}
	],
	"bufferViews":[
		{
			"buffer":0,
			"byteLength":49152,
			"byteOffset":0,
			"target":34962
		},
		{
			"buffer":0,
			"byteLength":49152,
			"byteOffset":49152,
			"target":34962
		},
		{
			"buffer":0,
			"byteLength":32768,
			"byteOffset":98304,
			"target":34962
		},
		{
			"buffer":0,
			"byteLength":49152,
			"byteOffset":131072,
			"target":34963
		},
		{
			"buffer":0,
			"byteLength":214440,
			"byteOffset":180224,
			"target":34962
		},
		{
			"buffer":0,
			"byteLength":214440,
			"byteOffset":394664,
			"target":34962
		},
		{
			"buffer":0,
			"byteLength":142960,
			"byteOffset":609104,
			"target":34962
		},
		{
			"buffer":0,
			"byteLength":214308,
			"byteOffset":752064,
			"target":34963
		},
		{
			"buffer":0,
			"byteLength":14916,
			"byteOffset":966372,
			"target":34962
		},
		{
			"buffer":0,
			"byteLength":14916,
			"byteOffset":981288,
			"target":34962
		},
		{
			"buffer":0,
			"byteLength":9944,
			"byteOffset":996204,
			"target":34962
		},
		{
			"buffer":0,
			"byteLength":13200,
			"byteOffset":1006148,
			"target":34963
		},
		{
			"buffer":0,
			"byteLength":496068,
			"byteOffset":1019348,
			"target":34962
		},
		{
			"buffer":0,
			"byteLength":496068,
			"byteOffset":1515416,
			"target":34962
		},
		{
			"buffer":0,
			"byteLength":330712,
			"byteOffset":2011484,
			"target":34962
		},
		{
			"buffer":0,
			"byteLength":494520,
			"byteOffset":2342196,
			"target":34963
		}
	],
	"buffers":[
		{
			"byteLength":2836716,
			"uri":"jar_ar.bin"
		}
	]
}
