{
    "asset" : {
        "generator" : "Khronos glTF Blender I/O v1.8.19",
        "version" : "2.0"
    },
    "scene" : 0,
    "scenes" : [
        {
            "name" : "Scene",
            "nodes" : [
                0,
                1,
                2,
                3,
                4,
                5,
                6
            ]
        }
    ],
    "nodes" : [
        {
            "mesh" : 0,
            "name" : "HydrogenMain",
            "rotation" : [
                0,
                -0.6436009407043457,
                0,
                -0.7653612494468689
            ]
        },
        {
            "mesh" : 1,
            "name" : "HydrogenAtom",
            "scale" : [
                0.31999993324279785,
                0.31999993324279785,
                0.31999993324279785
            ],
            "translation" : [
                -0.019036531448364258,
                0,
                -1.7457467317581177
            ]
        },
        {
            "mesh" : 2,
            "name" : "HydrogenAtom.001",
            "rotation" : [
                -0.7511311769485474,
                0,
                0,
                0.6601531505584717
            ],
            "scale" : [
                0.31999993324279785,
                0.31999993324279785,
                0.31999993324279785
            ],
            "translation" : [
                -0.8968331217765808,
                0,
                -1.4044108390808105
            ]
        },
        {
            "mesh" : 3,
            "name" : "HydrogenAtom.003",
            "rotation" : [
                -0.7511311769485474,
                0,
                0,
                0.6601531505584717
            ],
            "scale" : [
                0.31999993324279785,
                0.31999993324279785,
                0.31999993324279785
            ],
            "translation" : [
                -0.9331876635551453,
                0,
                1.3741763830184937
            ]
        },
        {
            "mesh" : 4,
            "name" : "HydrogenAtom.002",
            "scale" : [
                0.31999993324279785,
                0.31999993324279785,
                0.31999993324279785
            ],
            "translation" : [
                -0.019036531448364258,
                0,
                1.8063324689865112
            ]
        },
        {
            "mesh" : 5,
            "name" : "HydrogenAtom.005",
            "rotation" : [
                -0.7511311769485474,
                0,
                0,
                0.6601531505584717
            ],
            "scale" : [
                0.31999993324279785,
                0.31999993324279785,
                0.31999993324279785
            ],
            "translation" : [
                -1.5882298946380615,
                0,
                -0.5887474417686462
            ]
        },
        {
            "mesh" : 6,
            "name" : "HydrogenAtom.006",
            "rotation" : [
                -0.7511311769485474,
                0,
                0,
                0.6601531505584717
            ],
            "scale" : [
                0.31999993324279785,
                0.31999993324279785,
                0.31999993324279785
            ],
            "translation" : [
                -1.5403741598129272,
                0,
                0.4989798665046692
            ]
        }
    ],
    "materials" : [
        {
            "doubleSided" : true,
            "name" : "Hydrogen",
            "pbrMetallicRoughness" : {
                "baseColorTexture" : {
                    "index" : 0
                },
                "metallicFactor" : 0,
                "roughnessFactor" : 0.4000000059604645
            }
        },
        {
            "doubleSided" : true,
            "name" : "Material",
            "pbrMetallicRoughness" : {
                "baseColorFactor" : [
                    0.14322638511657715,
                    0.1479991227388382,
                    0.15318863093852997,
                    1
                ],
                "metallicFactor" : 0,
                "roughnessFactor" : 0.4000000059604645
            }
        },
        {
            "doubleSided" : true,
            "name" : "Material.003",
            "pbrMetallicRoughness" : {
                "baseColorFactor" : [
                    0.14322638511657715,
                    0.1479991227388382,
                    0.15318863093852997,
                    1
                ],
                "metallicFactor" : 0,
                "roughnessFactor" : 0.4000000059604645
            }
        },
        {
            "doubleSided" : true,
            "name" : "Material.005",
            "pbrMetallicRoughness" : {
                "baseColorFactor" : [
                    0.14322638511657715,
                    0.1479991227388382,
                    0.15318863093852997,
                    1
                ],
                "metallicFactor" : 0,
                "roughnessFactor" : 0.4000000059604645
            }
        },
        {
            "doubleSided" : true,
            "name" : "Material.006",
            "pbrMetallicRoughness" : {
                "baseColorFactor" : [
                    0.14322638511657715,
                    0.1479991227388382,
                    0.15318863093852997,
                    1
                ],
                "metallicFactor" : 0,
                "roughnessFactor" : 0.4000000059604645
            }
        },
        {
            "doubleSided" : true,
            "name" : "Material.008",
            "pbrMetallicRoughness" : {
                "baseColorFactor" : [
                    0.14322638511657715,
                    0.1479991227388382,
                    0.15318863093852997,
                    1
                ],
                "metallicFactor" : 0,
                "roughnessFactor" : 0.4000000059604645
            }
        },
        {
            "doubleSided" : true,
            "name" : "Material.009",
            "pbrMetallicRoughness" : {
                "baseColorFactor" : [
                    0.14322638511657715,
                    0.1479991227388382,
                    0.15318863093852997,
                    1
                ],
                "metallicFactor" : 0,
                "roughnessFactor" : 0.4000000059604645
            }
        }
    ],
    "meshes" : [
        {
            "name" : "Sphere",
            "primitives" : [
                {
                    "attributes" : {
                        "POSITION" : 0,
                        "NORMAL" : 1,
                        "TEXCOORD_0" : 2
                    },
                    "indices" : 3,
                    "material" : 0
                }
            ]
        },
        {
            "name" : "Sphere.001",
            "primitives" : [
                {
                    "attributes" : {
                        "POSITION" : 4,
                        "NORMAL" : 5,
                        "TEXCOORD_0" : 6
                    },
                    "indices" : 7,
                    "material" : 1
                }
            ]
        },
        {
            "name" : "Sphere.002",
            "primitives" : [
                {
                    "attributes" : {
                        "POSITION" : 8,
                        "NORMAL" : 9,
                        "TEXCOORD_0" : 10
                    },
                    "indices" : 7,
                    "material" : 2
                }
            ]
        },
        {
            "name" : "Sphere.004",
            "primitives" : [
                {
                    "attributes" : {
                        "POSITION" : 11,
                        "NORMAL" : 12,
                        "TEXCOORD_0" : 13
                    },
                    "indices" : 7,
                    "material" : 3
                }
            ]
        },
        {
            "name" : "Sphere.005",
            "primitives" : [
                {
                    "attributes" : {
                        "POSITION" : 14,
                        "NORMAL" : 15,
                        "TEXCOORD_0" : 16
                    },
                    "indices" : 7,
                    "material" : 4
                }
            ]
        },
        {
            "name" : "Sphere.007",
            "primitives" : [
                {
                    "attributes" : {
                        "POSITION" : 17,
                        "NORMAL" : 18,
                        "TEXCOORD_0" : 19
                    },
                    "indices" : 7,
                    "material" : 5
                }
            ]
        },
        {
            "name" : "Sphere.008",
            "primitives" : [
                {
                    "attributes" : {
                        "POSITION" : 20,
                        "NORMAL" : 21,
                        "TEXCOORD_0" : 22
                    },
                    "indices" : 7,
                    "material" : 6
                }
            ]
        }
    ],
    "textures" : [
        {
            "sampler" : 0,
            "source" : 0
        }
    ],
    "images" : [
        {
            "bufferView" : 4,
            "mimeType" : "image/png",
            "name" : "oxygenpattern"
        }
    ],
    "accessors" : [
        {
            "bufferView" : 0,
            "componentType" : 5126,
            "count" : 559,
            "max" : [
                0.9999997019767761,
                1,
                0.9999994039535522
            ],
            "min" : [
                -0.9999990463256836,
                -1,
                -0.9999987483024597
            ],
            "type" : "VEC3"
        },
        {
            "bufferView" : 1,
            "componentType" : 5126,
            "count" : 559,
            "type" : "VEC3"
        },
        {
            "bufferView" : 2,
            "componentType" : 5126,
            "count" : 559,
            "type" : "VEC2"
        },
        {
            "bufferView" : 3,
            "componentType" : 5123,
            "count" : 2880,
            "type" : "SCALAR"
        },
        {
            "bufferView" : 5,
            "componentType" : 5126,
            "count" : 559,
            "max" : [
                0.9999997019767761,
                1,
                0.9999994039535522
            ],
            "min" : [
                -0.9999990463256836,
                -1,
                -0.9999987483024597
            ],
            "type" : "VEC3"
        },
        {
            "bufferView" : 6,
            "componentType" : 5126,
            "count" : 559,
            "type" : "VEC3"
        },
        {
            "bufferView" : 7,
            "componentType" : 5126,
            "count" : 559,
            "type" : "VEC2"
        },
        {
            "bufferView" : 8,
            "componentType" : 5123,
            "count" : 2880,
            "type" : "SCALAR"
        },
        {
            "bufferView" : 9,
            "componentType" : 5126,
            "count" : 559,
            "max" : [
                0.9999997019767761,
                1,
                0.9999994039535522
            ],
            "min" : [
                -0.9999990463256836,
                -1,
                -0.9999987483024597
            ],
            "type" : "VEC3"
        },
        {
            "bufferView" : 10,
            "componentType" : 5126,
            "count" : 559,
            "type" : "VEC3"
        },
        {
            "bufferView" : 11,
            "componentType" : 5126,
            "count" : 559,
            "type" : "VEC2"
        },
        {
            "bufferView" : 12,
            "componentType" : 5126,
            "count" : 559,
            "max" : [
                0.9999997019767761,
                1,
                0.9999994039535522
            ],
            "min" : [
                -0.9999990463256836,
                -1,
                -0.9999987483024597
            ],
            "type" : "VEC3"
        },
        {
            "bufferView" : 13,
            "componentType" : 5126,
            "count" : 559,
            "type" : "VEC3"
        },
        {
            "bufferView" : 14,
            "componentType" : 5126,
            "count" : 559,
            "type" : "VEC2"
        },
        {
            "bufferView" : 15,
            "componentType" : 5126,
            "count" : 559,
            "max" : [
                0.9999997019767761,
                1,
                0.9999994039535522
            ],
            "min" : [
                -0.9999990463256836,
                -1,
                -0.9999987483024597
            ],
            "type" : "VEC3"
        },
        {
            "bufferView" : 16,
            "componentType" : 5126,
            "count" : 559,
            "type" : "VEC3"
        },
        {
            "bufferView" : 17,
            "componentType" : 5126,
            "count" : 559,
            "type" : "VEC2"
        },
        {
            "bufferView" : 18,
            "componentType" : 5126,
            "count" : 559,
            "max" : [
                0.9999997019767761,
                1,
                0.9999994039535522
            ],
            "min" : [
                -0.9999990463256836,
                -1,
                -0.9999987483024597
            ],
            "type" : "VEC3"
        },
        {
            "bufferView" : 19,
            "componentType" : 5126,
            "count" : 559,
            "type" : "VEC3"
        },
        {
            "bufferView" : 20,
            "componentType" : 5126,
            "count" : 559,
            "type" : "VEC2"
        },
        {
            "bufferView" : 21,
            "componentType" : 5126,
            "count" : 559,
            "max" : [
                0.9999997019767761,
                1,
                0.9999994039535522
            ],
            "min" : [
                -0.9999990463256836,
                -1,
                -0.9999987483024597
            ],
            "type" : "VEC3"
        },
        {
            "bufferView" : 22,
            "componentType" : 5126,
            "count" : 559,
            "type" : "VEC3"
        },
        {
            "bufferView" : 23,
            "componentType" : 5126,
            "count" : 559,
            "type" : "VEC2"
        }
    ],
    "bufferViews" : [
        {
            "buffer" : 0,
            "byteLength" : 6708,
            "byteOffset" : 0
        },
        {
            "buffer" : 0,
            "byteLength" : 6708,
            "byteOffset" : 6708
        },
        {
            "buffer" : 0,
            "byteLength" : 4472,
            "byteOffset" : 13416
        },
        {
            "buffer" : 0,
            "byteLength" : 5760,
            "byteOffset" : 17888
        },
        {
            "buffer" : 0,
            "byteLength" : 38077,
            "byteOffset" : 23648
        },
        {
            "buffer" : 0,
            "byteLength" : 6708,
            "byteOffset" : 61728
        },
        {
            "buffer" : 0,
            "byteLength" : 6708,
            "byteOffset" : 68436
        },
        {
            "buffer" : 0,
            "byteLength" : 4472,
            "byteOffset" : 75144
        },
        {
            "buffer" : 0,
            "byteLength" : 5760,
            "byteOffset" : 79616
        },
        {
            "buffer" : 0,
            "byteLength" : 6708,
            "byteOffset" : 85376
        },
        {
            "buffer" : 0,
            "byteLength" : 6708,
            "byteOffset" : 92084
        },
        {
            "buffer" : 0,
            "byteLength" : 4472,
            "byteOffset" : 98792
        },
        {
            "buffer" : 0,
            "byteLength" : 6708,
            "byteOffset" : 103264
        },
        {
            "buffer" : 0,
            "byteLength" : 6708,
            "byteOffset" : 109972
        },
        {
            "buffer" : 0,
            "byteLength" : 4472,
            "byteOffset" : 116680
        },
        {
            "buffer" : 0,
            "byteLength" : 6708,
            "byteOffset" : 121152
        },
        {
            "buffer" : 0,
            "byteLength" : 6708,
            "byteOffset" : 127860
        },
        {
            "buffer" : 0,
            "byteLength" : 4472,
            "byteOffset" : 134568
        },
        {
            "buffer" : 0,
            "byteLength" : 6708,
            "byteOffset" : 139040
        },
        {
            "buffer" : 0,
            "byteLength" : 6708,
            "byteOffset" : 145748
        },
        {
            "buffer" : 0,
            "byteLength" : 4472,
            "byteOffset" : 152456
        },
        {
            "buffer" : 0,
            "byteLength" : 6708,
            "byteOffset" : 156928
        },
        {
            "buffer" : 0,
            "byteLength" : 6708,
            "byteOffset" : 163636
        },
        {
            "buffer" : 0,
            "byteLength" : 4472,
            "byteOffset" : 170344
        }
    ],
    "samplers" : [
        {
            "magFilter" : 9729,
            "minFilter" : 9987
        }
    ],
    "buffers" : [
        {
            "byteLength" : 174816,
            "uri" : "data:application/octet-stream;base64,"
        }
    ]
}
